<?xml version="1.0" encoding="UTF-8"?>
<svg version="1.1" viewBox="0 0 1600 1600" width="1280" height="1280" xmlns="http://www.w3.org/2000/svg">
    <path transform="translate(1221,314)"
        d="m0 0c0.65 0.24 1.3 0.47 1.98 0.72 17.5 6.47 31.6 17.6 43 32.3 0.62 0.8 1.25 1.59 1.89 2.41 15.3 20.6 19.7 46 16.6 71.2-3.04 20-13 38.4-27.5 52.4-0.77 0.75-1.54 1.49-2.34 2.26-6.3 5.93-12.9 10.9-20.1 15.7-2.46 1.62-4.91 3.26-7.35 4.9-1.26 0.84-2.51 1.68-3.76 2.51-5.79 3.87-11.5 7.83-17.2 11.8-0.93 0.64-1.85 1.29-2.8 1.95-1.86 1.29-3.71 2.59-5.56 3.89-4.92 3.43-9.84 6.86-14.8 10.3-0.96 0.68-1.93 1.35-2.93 2.04-5.99 4.17-12 8.31-18 12.4-5.83 4.01-11.6 8.05-17.4 12.1-7.11 4.94-14.2 9.87-21.4 14.7-7.39 5.04-14.7 10.2-22 15.3-5.07 3.56-10.2 7.09-15.3 10.6-6.03 4.13-12 8.3-18 12.5s-12 8.37-18 12.5c-6.96 4.77-13.9 9.61-20.8 14.4-5.5 3.86-11 7.7-16.5 11.5-5 3.45-9.99 6.93-15 10.4-6.61 4.6-13.2 9.19-19.9 13.7-6.83 4.68-13.6 9.43-20.4 14.2-5.19 3.64-10.4 7.25-15.6 10.8-40.7 28-71.2 58.2-81.6 108-0.92 5.56-1.48 11-1.76 16.7-0.04 0.82-0.08 1.64-0.12 2.48-0.45 9.74-0.45 19.5-0.44 29.2 0 2.09-0.01 4.18-0.01 6.27v13.5c0 7.33-0.01 14.7-0.01 22-0.01 9.96-0.02 19.9-0.02 29.9 0 16.8-0.02 33.6-0.04 50.5 0 3.58-0.01 7.17-0.01 10.8v2.17c0 1.45-0.01 2.9-0.01 4.35v4.36c-0.02 17.1-0.04 34.2-0.05 51.4 0 1.12 0 1.12-0.01 2.27-0.02 24.3-0.03 48.6-0.04 72.8 0 25-0.03 50-0.06 75-0.01 3.54-0.01 7.07-0.02 10.6v2.11c-0.02 11.2-0.02 22.3-0.01 33.5 0 11.2-0.01 22.4-0.03 33.7-0.01 6.08-0.02 12.2-0.01 18.2 0.01 5.57 0 11.1-0.02 16.7-0.01 2 0 4.01 0.01 6.01 0.14 34.7-10.9 65.6-35.5 90.6-23 22.5-54.4 32.4-85.9 32.4-10.2-0.14-19.4-1.34-29.1-4.37-1.19-0.35-2.38-0.7-3.6-1.06-15.7-5.1-28.9-13.4-41.4-23.9-0.88-0.68-1.76-1.36-2.66-2.06-3-2.49-5.32-5.33-7.79-8.33-0.51-0.53-1.02-1.06-1.55-1.61h-2c-1.46 1.49-1.46 1.49-3 3.44-18.2 21.2-45.5 34.1-73 37.6-15.9 1.06-31.7 0.89-47-4-0.67-0.21-1.34-0.42-2.04-0.63-14.8-4.71-28.3-12.1-40-22.4-0.82-0.69-1.63-1.37-2.48-2.08-21.8-18.7-36.3-46.5-38.8-75.2-0.89-13.6-0.84-27.1-0.82-40.7v-8.08-17.3c0.01-8.33 0.02-16.7 0.02-25 0-13.5 0.01-27 0.01-40.6 0.01-13.1 0.02-26.2 0.03-39.4v-2.45-12.2c0.01-33.7 0.03-67.4 0.05-101-5.51 0.75-5.51 0.75-10.9 1.94-0.67 0.17-1.33 0.34-2.02 0.52-0.67 0.18-1.35 0.36-2.04 0.54-22.4 5.93-45.6 3.33-66-8-21.1-12.6-36.4-32.1-43.1-55.8-2.5-11.2-3.09-22-3.08-33.4 0-1.43-0.01-2.86-0.01-4.29-0.01-3.91-0.01-7.83-0.01-11.7 0-4.23-0.01-8.45-0.02-12.7-0.01-9.24-0.02-18.5-0.02-27.7 0-5.77-0.01-11.6-0.01-17.3-0.01-16-0.02-32-0.03-48.1v-3.1-3.12-6.24-3.13c0-16.7-0.02-33.4-0.05-50.1-0.02-17.2-0.03-34.4-0.03-51.5 0-9.63-0.01-19.2-0.03-28.9-0.01-8.21-0.02-16.4-0.01-24.6 0-4.18 0-8.36-0.01-12.5-0.12-36.5 3.66-66.8 22.4-98.7h2c0.38-1.08 0.38-1.08 0.76-2.18 10-22.7 38.7-39.8 60.7-48.5 0.7-0.27 1.4-0.54 2.12-0.82 0.67-0.26 1.33-0.51 2.02-0.77 3.56-1.31 6.56-2.02 10.4-1.73 0.42 0.85 0.83 1.7 1.26 2.58 7.89 15.7 18.2 30.2 29.7 43.4 0.63 0.74 1.26 1.48 1.91 2.25 10.9 12.5 22.8 24.8 36.1 34.8 0.63 0.48 1.27 0.95 1.92 1.45 60 45.1 134 65.5 208 55.1 41.6-6.06 82.4-21.2 117-45.6 0.57-0.4 1.15-0.81 1.74-1.22 10.6-7.46 21-15.3 30-24.6 2.23-2.15 2.23-2.15 4.23-2.15v-2c0.68-0.54 1.36-1.07 2.06-1.62 3.08-2.49 5.46-5.14 8.01-8.15 1.28-1.47 2.58-2.92 3.92-4.34 10.2-10.8 18.5-23.2 26.4-35.7 0.54-0.85 1.08-1.7 1.64-2.57 3.19-5.2 5.76-10.4 8.01-16.1 8.46-21 8.46-21 16.5-24.8 5.07-1.82 10.3-2.96 15.5-4.02 4.41-1.01 8.35-2.7 12.4-4.67 1.13-0.54 1.13-0.54 2.28-1.1 9.94-5.02 19-11.5 28.2-17.8 2.98-2.07 5.98-4.11 8.99-6.15 8.54-5.79 17-11.6 25.5-17.5 5.72-3.96 11.5-7.86 17.2-11.8 7.48-5.1 14.9-10.2 22.4-15.4l9.9-6.81c1.33-0.92 2.67-1.83 4-2.75 2.67-1.83 5.33-3.67 8-5.5 0.99-0.68 0.99-0.68 2-1.37 1.34-0.92 2.67-1.84 4.01-2.76 3.29-2.27 6.59-4.53 9.88-6.8 8.01-5.5 16-11 24-16.5 3.79-2.59 7.58-5.19 11.4-7.8 30.8-21.3 64.5-38.2 103-24z"
        fill="#5cdb80" />
    <path transform="translate(650 160)"
        d="m0 0c54.3-1.29 107 18 148 53.2 0.77 0.63 1.53 1.26 2.31 1.91 40.1 33.8 65.8 84.2 71.3 136 0.6 7.15 0.61 14.3 0.6 21.5v2.15c-0.03 10.5-0.25 20.8-2.19 31.2-0.15 0.85-0.31 1.7-0.47 2.58-5.68 30.2-16.7 58.3-34.5 83.4-0.39 0.56-0.78 1.12-1.19 1.69-4.72 6.68-9.9 12.8-15.5 18.8-1.99 2.15-3.88 4.34-5.77 6.58-36 41.1-94 62.2-147 65.8-22.4 1.37-45.7-0.91-67.4-6.85-0.76-0.2-1.52-0.4-2.31-0.61-32.1-8.45-61.9-24.3-86.7-46.4-0.71-0.6-1.42-1.21-2.15-1.82-37.7-31.9-60.3-77.1-68.8-125-0.13-0.71-0.26-1.42-0.4-2.15-9.23-50.6 6.28-105 34.8-147 5.07-7.29 10.7-14 16.6-20.7 0.65-0.76 1.3-1.52 1.97-2.3 36-42.1 89.9-65.7 144-71.2 4.8-0.37 9.61-0.48 14.4-0.69z"
        fill="#5cdb80" />
</svg>